<?xml version="1.0" encoding="UTF-8"?>
<svg class="scaling-svg" width="1730px" height="652px" viewBox="0 0 1730 652" version="1.1" xmlns="http://www.w3.org/2000/svg" xmlns:xlink="http://www.w3.org/1999/xlink">
    <title>DErPY ViSION</title>
    <desc>Created with Sketch.</desc>
    <defs></defs>
    <g id="Page-1" stroke="none" stroke-width="1" fill="none" fill-rule="evenodd">
        <g id="HD" transform="translate(-85.000000, -192.000000)" fill="#000000">
            <path d="M130.625682,199.300109 L307.653328,199.300109 C437.230265,199.300109 530.306657,262.081048 530.306657,348.952346 C530.306657,435.823645 437.230265,498.604583 307.653328,498.604583 L130.625682,498.604583 L158.001091,454.803929 L158.001091,243.100764 L130.625682,199.300109 Z M280.277919,436.553656 L313.12841,436.553656 C381.019425,436.553656 429.930156,399.323099 429.930156,348.952346 C429.930156,298.581593 381.019425,261.351037 313.12841,261.351037 L280.277919,261.351037 C263.122663,261.351037 251.077483,273.396217 251.077483,290.551473 L251.077483,407.353219 C251.077483,424.508476 263.122663,436.553656 280.277919,436.553656 Z M621.900327,221.200437 L621.900327,469.404147 L594.524918,498.604583 L771.552564,498.604583 L771.552564,434.728629 C752.937286,449.693852 716.801746,460.27901 683.951255,460.27901 L662.050928,460.27901 L662.050928,365.377592 C662.050928,356.982466 668.25602,350.777374 676.651146,350.777374 C683.221244,350.777374 700.3765,351.507384 714.976719,352.602401 L738.702073,354.427428 L738.702073,319.75191 L714.976719,321.576937 C701.836522,322.671953 684.681266,323.401964 676.651146,323.401964 C668.25602,323.401964 662.050928,317.196872 662.050928,308.801746 L662.050928,230.325573 L683.951255,230.325573 C716.801746,230.325573 752.937286,240.910731 771.552564,255.875955 L771.552564,192 L594.524918,192 L621.900327,221.200437 Z M906.675518,358.176064 L917.260677,287 L882.950164,287 L897.550382,338.100764 L897.550382,480.452892 L872,498.703165 L948.651146,498.703165 L930.400873,482.277919 C916.895671,469.502728 906.675518,441.032303 906.675518,414.75191 C906.675518,369.491233 929.305857,336.275737 961.426337,336.275737 L961.426337,287 C943.906075,287 922.370753,316.930447 910.325573,358.176064 L906.675518,358.176064 Z M1256.07857,386.97781 C1209.72288,386.97781 1161.54216,375.662641 1141.10186,359.602401 L1137.4518,359.602401 L1137.4518,456.328847 L1164.82721,498.304474 L1017,498.304474 L1044.37541,456.328847 L1044.37541,242.800655 L1017,199 L1252.42852,199 C1336.74478,199 1398.4307,238.785595 1398.4307,293.901419 C1398.4307,347.922226 1338.93481,386.97781 1256.07857,386.97781 Z M1138,319.400873 L1169.02546,324.875955 C1240.20153,336.921135 1291.30229,327.795999 1291.30229,302.975627 C1291.30229,278.885267 1257.35678,261 1211.00109,261 L1167.20044,261 C1150.04518,261 1138,273.04518 1138,290.200437 L1138,319.400873 Z M1690.89814,498.954529 L1663.52274,464.27901 L1661.69771,411.353219 C1659.87268,350.762314 1713.52848,267.906075 1789.44962,214.250273 L1815,196 L1683.59804,196 L1634.3223,331.052019 L1630.67224,331.052019 L1581.39651,196 L1439.04438,196 L1466.41979,214.250273 C1543.80095,266.081048 1598.18676,348.937286 1595.99673,411.353219 L1594.1717,464.27901 L1566.79629,498.954529 L1690.89814,498.954529 Z M525.523827,577.898872 L382.353583,577.898872 L306.835213,730.508912 L303.688614,730.508912 L247.049836,577.898872 L85,577.898872 L107.026191,595.205165 C161.14769,638.628228 231.946162,723.901055 275.369225,798.160786 L302.115315,843.786468 L308.408512,843.786468 L335.154602,798.160786 C378.892324,722.957075 449.690797,637.684249 503.497635,595.205165 L525.523827,577.898872 Z M566.303747,596.778465 C566.303747,615.028738 570.708985,628.244452 575.743543,628.244452 C580.778101,628.244452 585.183339,615.028738 585.183339,596.778465 C585.183339,578.528192 580.778101,565.312477 575.743543,565.312477 C570.708985,565.312477 566.303747,578.528192 566.303747,596.778465 Z M574.170244,793.440887 C574.170244,741.207348 581.407421,681.736631 591.476537,651.843943 C576.687523,655.619862 554.346671,655.619862 539.557657,651.843943 L564.730447,673.870134 L564.730447,820.186977 L542.704256,835.919971 L602.489633,835.919971 L586.756639,823.333576 C579.519462,817.984358 574.170244,805.083303 574.170244,793.440887 Z M776.05602,643.977446 C829.862859,643.977446 890.277555,654.361222 920.170244,669.150236 L920.170244,584.19207 C887.760276,576.010913 837.100036,570.032375 799.026191,570.032375 C714.382685,570.032375 652.709349,598.981084 652.709349,639.257548 C652.709349,714.146599 848.742452,731.767552 848.742452,755.681702 C848.742452,764.177519 820.423063,769.841397 781.090578,769.841397 C736.094216,769.841397 681.972717,759.457621 652.709349,745.612586 L652.709349,828.053474 C677.882139,837.17861 733.262277,843.786468 784.866497,843.786468 C868.880684,843.786468 929.61004,809.803201 929.61004,763.548199 C929.61004,680.477992 705.257548,671.982175 705.257548,651.843943 C705.257548,647.438705 734.835577,643.977446 776.05602,643.977446 Z M1047.48163,835.919971 L1023.88214,818.613677 L1023.88214,585.765369 L1047.48163,568.459076 L986.122954,568.459076 L1009.72244,585.765369 L1009.72244,818.613677 L986.122954,835.919971 L1047.48163,835.919971 Z M1278.63077,570.032375 C1380.89523,570.032375 1454.84031,627.615133 1454.84031,706.909421 C1454.84031,786.20371 1380.89523,843.786468 1278.63077,843.786468 C1176.36632,843.786468 1102.42124,786.20371 1102.42124,706.909421 C1102.42124,627.615133 1176.36632,570.032375 1278.63077,570.032375 Z M1278.63077,643.977446 C1215.6988,643.977446 1170.07312,670.408876 1170.07312,706.909421 C1170.07312,743.409967 1215.6988,769.841397 1278.63077,769.841397 C1341.56275,769.841397 1387.18843,743.409967 1387.18843,706.909421 C1387.18843,670.408876 1341.56275,643.977446 1278.63077,643.977446 Z M1791.40051,604.644962 L1815,574.752273 L1720.60204,574.752273 L1744.20153,604.644962 L1744.20153,727.362313 L1741.05493,727.362313 L1632.49727,574.752273 L1517.64642,574.752273 L1552.259,610.938159 L1552.259,806.027282 L1528.65951,835.919971 L1623.05748,835.919971 L1599.45798,806.027282 L1599.45798,650.270644 L1602.60458,650.270644 L1791.40051,842.213168 L1791.40051,604.644962 Z" id="DErPY-ViSION"></path>
        </g>
    </g>
</svg>